<?xml version="1.0" encoding="UTF-8" standalone="no"?>
<svg
   xmlns:dc="http://purl.org/dc/elements/1.1/"
   xmlns:cc="http://creativecommons.org/ns#"
   xmlns:rdf="http://www.w3.org/1999/02/22-rdf-syntax-ns#"
   xmlns:svg="http://www.w3.org/2000/svg"
   xmlns="http://www.w3.org/2000/svg"
   version="1.1"
   id="svg2"
   viewBox="0 0 200.00001 200.00001"
   height="56.444447mm"
   width="56.444447mm">
  <defs
     id="defs4" />
  <metadata
     id="metadata7">
    <rdf:RDF>
      <cc:Work
         rdf:about="">
        <dc:format>image/svg+xml</dc:format>
        <dc:type
           rdf:resource="http://purl.org/dc/dcmitype/StillImage" />
        <dc:title></dc:title>
      </cc:Work>
    </rdf:RDF>
  </metadata>
  <g
     transform="translate(-212.99999,-331.36217)"
     id="layer1">
    <g
       id="flowRoot7036"
       style="font-style:normal;font-weight:normal;font-size:40px;line-height:125%;font-family:sans-serif;letter-spacing:0px;word-spacing:0px;fill:#000000;fill-opacity:1;stroke:none;stroke-width:1px;stroke-linecap:butt;stroke-linejoin:miter;stroke-opacity:1"
       transform="translate(89.799211,-12.348068)">
      <path
         id="path7159"
         style="font-style:normal;font-variant:normal;font-weight:normal;font-stretch:normal;font-family:Raleway;-inkscape-font-specification:Raleway"
         d="m 169.51484,432.19024 -10.12,0 0,25.92 -2.8,0 0,-25.92 -10.12,0 0,-2.48 23.04,0 0,2.48 z" />
      <path
         id="path7161"
         style="font-style:normal;font-variant:normal;font-weight:normal;font-stretch:normal;font-family:Raleway;-inkscape-font-specification:Raleway"
         d="m 175.77797,458.51024 q -3.28,0 -4.96,-2.24 -1.68,-2.28 -1.68,-6.76 l 0,-12.24 2.72,0 0,11.76 q 0,7.08 4.84,7.08 1.2,0 2.36,-0.4 1.16,-0.4 2.12,-1.16 1,-0.76 1.76,-1.8 0.8,-1.04 1.28,-2.36 l 0,-13.12 2.72,0 0,17.32 q 0,1.12 1,1.12 l 0,2.4 q -0.8,0.12 -1.12,0.12 -0.92,0 -1.6,-0.56 -0.64,-0.56 -0.64,-1.4 l 0,-2.88 q -1.4,2.44 -3.72,3.8 -2.32,1.32 -5.08,1.32 z" />
      <path
         id="path7163"
         style="font-style:normal;font-variant:normal;font-weight:normal;font-stretch:normal;font-family:Raleway;-inkscape-font-specification:Raleway"
         d="m 203.08984,457.11024 q -0.24,0.12 -0.72,0.32 -0.44,0.2 -1.04,0.4 -0.6,0.2 -1.36,0.36 -0.76,0.16 -1.6,0.16 -0.88,0 -1.68,-0.24 -0.8,-0.24 -1.4,-0.72 -0.6,-0.52 -0.96,-1.28 -0.36,-0.76 -0.36,-1.76 l 0,-14.92 -2.88,0 0,-2.16 2.88,0 0,-7.04 2.72,0 0,7.04 4.8,0 0,2.16 -4.8,0 0,14.16 q 0.08,1.16 0.8,1.72 0.72,0.52 1.72,0.52 1.16,0 2.04,-0.36 0.88,-0.4 1.12,-0.56 l 0.72,2.2 z" />
      <path
         id="path7165"
         style="font-style:normal;font-variant:normal;font-weight:normal;font-stretch:normal;font-family:Raleway;-inkscape-font-specification:Raleway"
         d="m 214.82234,458.51024 q -2.28,0 -4.2,-0.84 -1.88,-0.88 -3.28,-2.36 -1.36,-1.48 -2.12,-3.44 -0.76,-1.96 -0.76,-4.12 0,-2.2 0.76,-4.16 0.8,-1.96 2.16,-3.44 1.4,-1.48 3.28,-2.36 1.92,-0.88 4.16,-0.88 2.24,0 4.12,0.88 1.92,0.88 3.28,2.36 1.4,1.48 2.16,3.44 0.8,1.96 0.8,4.16 0,2.16 -0.8,4.12 -0.76,1.96 -2.16,3.44 -1.36,1.48 -3.28,2.36 -1.88,0.84 -4.12,0.84 z m -7.56,-10.72 q 0,1.76 0.56,3.28 0.6,1.48 1.6,2.64 1.04,1.12 2.4,1.76 1.4,0.64 2.96,0.64 1.56,0 2.92,-0.64 1.4,-0.68 2.44,-1.8 1.04,-1.16 1.64,-2.68 0.6,-1.52 0.6,-3.28 0,-1.72 -0.6,-3.24 -0.6,-1.56 -1.64,-2.68 -1.04,-1.16 -2.4,-1.8 -1.36,-0.68 -2.92,-0.68 -1.56,0 -2.96,0.68 -1.36,0.64 -2.4,1.8 -1,1.16 -1.6,2.72 -0.6,1.52 -0.6,3.28 z" />
      <path
         id="path7167"
         style="font-style:normal;font-variant:normal;font-weight:normal;font-stretch:normal;font-family:Raleway;-inkscape-font-specification:Raleway"
         d="m 240.05047,439.67024 q -2.76,0.08 -4.8,1.52 -2.04,1.44 -2.88,3.96 l 0,12.96 -2.72,0 0,-20.84 2.56,0 0,5 q 1.08,-2.2 2.84,-3.64 1.76,-1.48 3.8,-1.48 0.36,0 0.68,0 0.32,0 0.52,0.04 l 0,2.48 z" />
      <path
         id="path7169"
         style="font-style:normal;font-variant:normal;font-weight:normal;font-stretch:normal;font-family:Raleway;-inkscape-font-specification:Raleway"
         d="m 243.71297,458.11024 0,-20.84 2.72,0 0,20.84 -2.72,0 z m 0,-25.2 0,-4 2.72,0 0,4 -2.72,0 z" />
      <path
         id="path7171"
         style="font-style:normal;font-variant:normal;font-weight:normal;font-stretch:normal;font-family:Raleway;-inkscape-font-specification:Raleway"
         d="m 257.82672,458.51024 q -1.6,0 -2.92,-0.48 -1.32,-0.52 -2.28,-1.4 -0.92,-0.88 -1.44,-2.04 -0.52,-1.16 -0.52,-2.44 0,-1.44 0.64,-2.6 0.64,-1.2 1.8,-2.04 1.16,-0.84 2.76,-1.28 1.64,-0.48 3.6,-0.48 1.56,0 3.2,0.28 1.64,0.28 2.92,0.8 l 0,-1.88 q 0,-2.76 -1.6,-4.36 -1.56,-1.64 -4.24,-1.64 -1.68,0 -3.36,0.64 -1.64,0.64 -3.36,1.84 l -0.96,-1.8 q 2.04,-1.36 3.96,-2.04 1.92,-0.68 4,-0.68 3.8,0 6.04,2.2 2.24,2.2 2.24,6.08 l 0,9.4 q 0,1.12 0.96,1.12 l 0,2.4 q -0.32,0.04 -0.6,0.04 -0.28,0.04 -0.48,0.04 -0.8,0 -1.48,-0.48 -0.64,-0.48 -0.72,-1.44 l -0.08,-1.64 q -1.36,1.84 -3.6,2.88 -2.2,1 -4.48,1 z m 0.68,-2.08 q 1.8,0 3.56,-0.76 1.8,-0.8 2.84,-2.16 0.28,-0.36 0.48,-0.76 0.2,-0.44 0.2,-0.8 l 0,-3.4 q -1.36,-0.52 -2.84,-0.8 -1.48,-0.28 -2.88,-0.28 -2.92,0 -4.76,1.2 -1.8,1.16 -1.8,3.24 0,0.84 0.32,1.64 0.32,0.8 0.96,1.44 0.68,0.64 1.64,1.04 0.96,0.4 2.28,0.4 z" />
      <path
         id="path7173"
         style="font-style:normal;font-variant:normal;font-weight:normal;font-stretch:normal;font-family:Raleway;-inkscape-font-specification:Raleway"
         d="m 274.37984,428.91024 2.72,0 0,24.48 q 0,1.16 0.64,1.84 0.64,0.64 1.8,0.64 0.44,0 1.04,-0.12 0.6,-0.12 1.12,-0.32 l 0.48,2.2 q -0.76,0.32 -1.88,0.52 -1.08,0.2 -1.88,0.2 -1.88,0 -2.96,-1.04 -1.08,-1.08 -1.08,-3 l 0,-25.4 z" />
      <path
         id="path7175"
         style="font-style:normal;font-variant:normal;font-weight:normal;font-stretch:normal;font-family:Raleway;-inkscape-font-specification:Raleway"
         d="m 291.80672,458.51024 q -2.44,0 -4.76,-0.8 -2.32,-0.8 -4,-2.32 l 1.24,-1.84 q 1.76,1.44 3.56,2.16 1.84,0.72 3.92,0.72 2.52,0 4,-1 1.52,-1.04 1.52,-2.92 0,-0.88 -0.4,-1.44 -0.4,-0.6 -1.2,-1.04 -0.76,-0.44 -1.96,-0.76 -1.16,-0.36 -2.72,-0.72 -1.8,-0.44 -3.12,-0.88 -1.32,-0.44 -2.2,-1 -0.84,-0.56 -1.28,-1.36 -0.4,-0.84 -0.4,-2.08 0,-1.56 0.6,-2.76 0.64,-1.2 1.68,-1.96 1.08,-0.8 2.48,-1.2 1.44,-0.4 3.04,-0.4 2.4,0 4.36,0.8 1.96,0.76 3.16,2.04 l -1.32,1.6 q -1.16,-1.2 -2.84,-1.8 -1.64,-0.6 -3.44,-0.6 -1.08,0 -2,0.24 -0.92,0.2 -1.64,0.68 -0.68,0.48 -1.08,1.24 -0.4,0.72 -0.4,1.72 0,0.84 0.28,1.36 0.28,0.52 0.92,0.92 0.64,0.36 1.6,0.68 1,0.28 2.4,0.6 2,0.48 3.52,0.96 1.52,0.48 2.52,1.12 1.04,0.64 1.56,1.56 0.52,0.92 0.52,2.24 0,2.88 -2.2,4.56 -2.2,1.68 -5.92,1.68 z" />
    </g>
    <path
       id="rect7063"
       d="m 233.75571,332.11789 158.48857,0 c 11.08,0 20,8.92 20,20 l 0,158.48857 c 0,11.08 -8.92,20 -20,20 l -158.48857,0 c -11.08,0 -20,-8.92 -20,-20 l 0,-158.48857 c 0,-11.08 8.92,-20 20,-20 z"
       style="opacity:1;fill:none;fill-opacity:1;stroke:#ffffff;stroke-width:1.51100009;stroke-linecap:butt;stroke-linejoin:round;stroke-miterlimit:4;stroke-dasharray:none;stroke-opacity:1" />
  </g>
</svg>
